<svg xmlns="http://www.w3.org/2000/svg" style="display:none">
  <!-- Icons from Lucide, MIT License: https://lucide.dev/license -->
  <symbol id="plus" viewBox="0 0 24 24">
    <path d="M5 12h14" />
    <path d="M12 5v14" />
  </symbol>
  <symbol id="pencil" viewBox="0 0 24 24">
    <path d="M21.174 6.812a1 1 0 0 0-3.986-3.987L3.842 16.174a2 2 0 0 0-.5.83l-1.321 4.352a.5.5 0 0 0 .623.622l4.353-1.32a2 2 0 0 0 .83-.497z" />
    <path d="m15 5 4 4" />
  </symbol>
  <symbol id="trash-2" viewBox="0 0 24 24">
    <path d="M3 6h18" />
    <path d="M19 6v14c0 1-1 2-2 2H7c-1 0-2-1-2-2V6" />
    <path d="M8 6V4c0-1 1-2 2-2h4c1 0 2 1 2 2v2" />
    <line x1="10" x2="10" y1="11" y2="17" />
    <line x1="14" x2="14" y1="11" y2="17" />
  </symbol>
  <symbol id="x" viewBox="0 0 24 24">
    <path d="M18 6 6 18" />
    <path d="m6 6 12 12" />
  </symbol>
  <symbol id="menu" viewBox="0 0 24 24">
    <path d="M4 12h16" />
    <path d="M4 18h16" />
    <path d="M4 6h16" />
  </symbol>
  <symbol id="chevron-left" viewBox="0 0 24 24">
    <path d="m15 18-6-6 6-6" />
  </symbol>
  <symbol id="check" viewBox="0 0 24 24">
    <path d="M20 6 9 17l-5-5" />
  </symbol>
  <symbol id="circle" viewBox="0 0 24 24">
    <circle cx="12" cy="12" r="10" />
  </symbol>
  <symbol id="search" viewBox="0 0 24 24">
    <circle cx="11" cy="11" r="8" />
    <path d="m21 21-4.3-4.3" />
  </symbol>
  <symbol id="columns-3" viewBox="0 0 24 24">
    <rect width="18" height="18" x="3" y="3" rx="2" />
    <path d="M9 3v18" />
    <path d="M15 3v18" />
  </symbol>
  <symbol id="list" viewBox="0 0 24 24">
    <path d="M8 6h13" />
    <path d="M8 12h13" />
    <path d="M8 18h13" />
    <path d="M3 6h.01" />
    <path d="M3 12h.01" />
    <path d="M3 18h.01" />
  </symbol>
  <symbol id="archive" viewBox="0 0 24 24">
    <rect width="20" height="5" x="2" y="3" rx="1" />
    <path d="M4 8v11a2 2 0 0 0 2 2h12a2 2 0 0 0 2-2V8" />
    <path d="M10 12h4" />
  </symbol>
  <symbol id="download" viewBox="0 0 24 24">
    <path d="M12 15V3" />
    <path d="M21 15v4a2 2 0 0 1-2 2H5a2 2 0 0 1-2-2v-4" />
    <path d="m7 10 5 5 5-5" />
  </symbol>
  <symbol id="upload" viewBox="0 0 24 24">
    <path d="M12 3v12" />
    <path d="M17 8 12 3 7 8" />
    <path d="M21 15v4a2 2 0 0 1-2 2H5a2 2 0 0 1-2-2v-4" />
  </symbol>
  <symbol id="rotate-ccw" viewBox="0 0 24 24">
    <path d="M3 12a9 9 0 1 0 9-9 9.75 9.75 0 0 0-6.74 2.74L3 8" />
    <path d="M3 3v5h5" />
  </symbol>
  <symbol id="settings" viewBox="0 0 24 24">
    <path d="M12.22 2h-.44a2 2 0 0 0-2 2v.18a2 2 0 0 1-1 1.73l-.43.25a2 2 0 0 1-2 0l-.15-.08a2 2 0 0 0-2.73.73l-.22.38a2 2 0 0 0 .73 2.73l.15.1a2 2 0 0 1 1 1.72v.51a2 2 0 0 1-1 1.74l-.15.09a2 2 0 0 0-.73 2.73l.22.38a2 2 0 0 0 2.73.73l.15-.08a2 2 0 0 1 2 0l.43.25a2 2 0 0 1 1 1.73V20a2 2 0 0 0 2 2h.44a2 2 0 0 0 2-2v-.18a2 2 0 0 1 1-1.73l.43-.25a2 2 0 0 1 2 0l.15.08a2 2 0 0 0 2.73-.73l.22-.38a2 2 0 0 0-.73-2.73l-.15-.09a2 2 0 0 1-1-1.74v-.5a2 2 0 0 1 1-1.74l.15-.09a2 2 0 0 0 .73-2.73l-.22-.38a2 2 0 0 0-2.73-.73l-.15.08a2 2 0 0 1-2 0l-.43-.25a2 2 0 0 1-1-1.73V4a2 2 0 0 0-2-2z" />
    <circle cx="12" cy="12" r="3" />
  </symbol>
  <symbol id="ellipsis" viewBox="0 0 24 24">
    <circle cx="12" cy="12" r="1" />
    <circle cx="19" cy="12" r="1" />
    <circle cx="5" cy="12" r="1" />
  </symbol>
</svg>
